<mxfile host="app.diagrams.net" modified="2023-10-02T09:32:54.874Z" agent="Mozilla/5.0 (Windows NT 10.0; Win64; x64) AppleWebKit/537.36 (KHTML, like Gecko) Chrome/117.0.0.0 Safari/537.36" etag="iQO-xjmO3YiAzYpbyys3" version="22.0.0" type="device">
  <diagram id="R2lEEEUBdFMjLlhIrx00" name="Page-1">
    <mxGraphModel dx="2161" dy="706" grid="1" gridSize="10" guides="1" tooltips="1" connect="1" arrows="1" fold="1" page="1" pageScale="1" pageWidth="850" pageHeight="1100" math="0" shadow="0" extFonts="Permanent Marker^https://fonts.googleapis.com/css?family=Permanent+Marker">
      <root>
        <mxCell id="0" />
        <mxCell id="1" parent="0" />
        <mxCell id="QZzGZG3oZ8tmxCs0Tylt-1" value="proveedor" style="rounded=0;whiteSpace=wrap;html=1;" vertex="1" parent="1">
          <mxGeometry x="180" y="220" width="120" height="60" as="geometry" />
        </mxCell>
        <mxCell id="QZzGZG3oZ8tmxCs0Tylt-2" value="suministra" style="rhombus;whiteSpace=wrap;html=1;" vertex="1" parent="1">
          <mxGeometry x="400" y="210" width="80" height="80" as="geometry" />
        </mxCell>
        <mxCell id="QZzGZG3oZ8tmxCs0Tylt-3" value="material" style="rounded=0;whiteSpace=wrap;html=1;" vertex="1" parent="1">
          <mxGeometry x="610" y="220" width="120" height="60" as="geometry" />
        </mxCell>
        <mxCell id="QZzGZG3oZ8tmxCs0Tylt-4" value="" style="endArrow=none;html=1;rounded=0;entryX=0;entryY=0.5;entryDx=0;entryDy=0;exitX=1;exitY=0.5;exitDx=0;exitDy=0;" edge="1" parent="1" source="QZzGZG3oZ8tmxCs0Tylt-1" target="QZzGZG3oZ8tmxCs0Tylt-2">
          <mxGeometry width="50" height="50" relative="1" as="geometry">
            <mxPoint x="400" y="340" as="sourcePoint" />
            <mxPoint x="450" y="290" as="targetPoint" />
          </mxGeometry>
        </mxCell>
        <mxCell id="QZzGZG3oZ8tmxCs0Tylt-5" value="" style="endArrow=none;html=1;rounded=0;entryX=1;entryY=0.5;entryDx=0;entryDy=0;exitX=0;exitY=0.5;exitDx=0;exitDy=0;" edge="1" parent="1" source="QZzGZG3oZ8tmxCs0Tylt-3" target="QZzGZG3oZ8tmxCs0Tylt-2">
          <mxGeometry width="50" height="50" relative="1" as="geometry">
            <mxPoint x="410" y="350" as="sourcePoint" />
            <mxPoint x="460" y="300" as="targetPoint" />
          </mxGeometry>
        </mxCell>
        <mxCell id="QZzGZG3oZ8tmxCs0Tylt-6" value="sociedad" style="ellipse;whiteSpace=wrap;html=1;" vertex="1" parent="1">
          <mxGeometry x="-90" y="180" width="140" height="40" as="geometry" />
        </mxCell>
        <mxCell id="QZzGZG3oZ8tmxCs0Tylt-7" value="nombre" style="ellipse;whiteSpace=wrap;html=1;" vertex="1" parent="1">
          <mxGeometry x="-80" y="120" width="140" height="40" as="geometry" />
        </mxCell>
        <mxCell id="QZzGZG3oZ8tmxCs0Tylt-8" value="&lt;b&gt;&lt;u&gt;cif&lt;/u&gt;&lt;/b&gt;" style="ellipse;whiteSpace=wrap;html=1;" vertex="1" parent="1">
          <mxGeometry x="40" y="70" width="140" height="40" as="geometry" />
        </mxCell>
        <mxCell id="QZzGZG3oZ8tmxCs0Tylt-9" value="direccion" style="ellipse;whiteSpace=wrap;html=1;" vertex="1" parent="1">
          <mxGeometry x="-90" y="250" width="140" height="40" as="geometry" />
        </mxCell>
        <mxCell id="QZzGZG3oZ8tmxCs0Tylt-10" value="email" style="ellipse;whiteSpace=wrap;html=1;" vertex="1" parent="1">
          <mxGeometry x="-90" y="310" width="140" height="40" as="geometry" />
        </mxCell>
        <mxCell id="QZzGZG3oZ8tmxCs0Tylt-11" value="telefono" style="ellipse;whiteSpace=wrap;html=1;" vertex="1" parent="1">
          <mxGeometry x="20" y="370" width="140" height="40" as="geometry" />
        </mxCell>
        <mxCell id="QZzGZG3oZ8tmxCs0Tylt-12" value="" style="endArrow=none;html=1;rounded=0;entryX=0.779;entryY=0.975;entryDx=0;entryDy=0;entryPerimeter=0;exitX=0.75;exitY=0;exitDx=0;exitDy=0;" edge="1" parent="1" source="QZzGZG3oZ8tmxCs0Tylt-1" target="QZzGZG3oZ8tmxCs0Tylt-8">
          <mxGeometry width="50" height="50" relative="1" as="geometry">
            <mxPoint x="400" y="230" as="sourcePoint" />
            <mxPoint x="420" y="160" as="targetPoint" />
          </mxGeometry>
        </mxCell>
        <mxCell id="QZzGZG3oZ8tmxCs0Tylt-13" value="" style="endArrow=none;html=1;rounded=0;entryX=1;entryY=0.5;entryDx=0;entryDy=0;exitX=0.25;exitY=0;exitDx=0;exitDy=0;" edge="1" parent="1" source="QZzGZG3oZ8tmxCs0Tylt-1" target="QZzGZG3oZ8tmxCs0Tylt-7">
          <mxGeometry width="50" height="50" relative="1" as="geometry">
            <mxPoint x="280" y="230" as="sourcePoint" />
            <mxPoint x="159" y="119" as="targetPoint" />
          </mxGeometry>
        </mxCell>
        <mxCell id="QZzGZG3oZ8tmxCs0Tylt-14" value="" style="endArrow=none;html=1;rounded=0;entryX=1;entryY=0.5;entryDx=0;entryDy=0;exitX=0;exitY=0.25;exitDx=0;exitDy=0;" edge="1" parent="1" source="QZzGZG3oZ8tmxCs0Tylt-1" target="QZzGZG3oZ8tmxCs0Tylt-6">
          <mxGeometry width="50" height="50" relative="1" as="geometry">
            <mxPoint x="220" y="230" as="sourcePoint" />
            <mxPoint x="70" y="150" as="targetPoint" />
          </mxGeometry>
        </mxCell>
        <mxCell id="QZzGZG3oZ8tmxCs0Tylt-15" value="" style="endArrow=none;html=1;rounded=0;exitX=0;exitY=0.75;exitDx=0;exitDy=0;" edge="1" parent="1" source="QZzGZG3oZ8tmxCs0Tylt-1" target="QZzGZG3oZ8tmxCs0Tylt-9">
          <mxGeometry width="50" height="50" relative="1" as="geometry">
            <mxPoint x="190" y="245" as="sourcePoint" />
            <mxPoint x="70" y="270" as="targetPoint" />
          </mxGeometry>
        </mxCell>
        <mxCell id="QZzGZG3oZ8tmxCs0Tylt-16" value="" style="endArrow=none;html=1;rounded=0;entryX=1;entryY=0.5;entryDx=0;entryDy=0;" edge="1" parent="1" target="QZzGZG3oZ8tmxCs0Tylt-10">
          <mxGeometry width="50" height="50" relative="1" as="geometry">
            <mxPoint x="180" y="280" as="sourcePoint" />
            <mxPoint x="60" y="278" as="targetPoint" />
          </mxGeometry>
        </mxCell>
        <mxCell id="QZzGZG3oZ8tmxCs0Tylt-17" value="" style="endArrow=none;html=1;rounded=0;entryX=0.65;entryY=-0.025;entryDx=0;entryDy=0;entryPerimeter=0;exitX=0.25;exitY=1;exitDx=0;exitDy=0;" edge="1" parent="1" source="QZzGZG3oZ8tmxCs0Tylt-1" target="QZzGZG3oZ8tmxCs0Tylt-11">
          <mxGeometry width="50" height="50" relative="1" as="geometry">
            <mxPoint x="190" y="290" as="sourcePoint" />
            <mxPoint x="60" y="340" as="targetPoint" />
          </mxGeometry>
        </mxCell>
        <mxCell id="QZzGZG3oZ8tmxCs0Tylt-18" value="&lt;b&gt;&lt;u&gt;referencia&lt;/u&gt;&lt;/b&gt;" style="ellipse;whiteSpace=wrap;html=1;" vertex="1" parent="1">
          <mxGeometry x="810" y="180" width="140" height="40" as="geometry" />
        </mxCell>
        <mxCell id="QZzGZG3oZ8tmxCs0Tylt-19" value="tamanyo" style="ellipse;whiteSpace=wrap;html=1;" vertex="1" parent="1">
          <mxGeometry x="820" y="260" width="140" height="40" as="geometry" />
        </mxCell>
        <mxCell id="QZzGZG3oZ8tmxCs0Tylt-20" value="" style="endArrow=none;html=1;rounded=0;entryX=0;entryY=0.5;entryDx=0;entryDy=0;exitX=1;exitY=0;exitDx=0;exitDy=0;" edge="1" parent="1" source="QZzGZG3oZ8tmxCs0Tylt-3" target="QZzGZG3oZ8tmxCs0Tylt-18">
          <mxGeometry width="50" height="50" relative="1" as="geometry">
            <mxPoint x="400" y="230" as="sourcePoint" />
            <mxPoint x="450" y="180" as="targetPoint" />
          </mxGeometry>
        </mxCell>
        <mxCell id="QZzGZG3oZ8tmxCs0Tylt-22" value="" style="endArrow=none;html=1;rounded=0;entryX=0.032;entryY=0.596;entryDx=0;entryDy=0;exitX=1;exitY=0.5;exitDx=0;exitDy=0;entryPerimeter=0;" edge="1" parent="1" source="QZzGZG3oZ8tmxCs0Tylt-3" target="QZzGZG3oZ8tmxCs0Tylt-19">
          <mxGeometry width="50" height="50" relative="1" as="geometry">
            <mxPoint x="740" y="230" as="sourcePoint" />
            <mxPoint x="820" y="210" as="targetPoint" />
          </mxGeometry>
        </mxCell>
        <mxCell id="QZzGZG3oZ8tmxCs0Tylt-23" value="(1,N)" style="text;html=1;strokeColor=none;fillColor=none;align=center;verticalAlign=middle;whiteSpace=wrap;rounded=0;" vertex="1" parent="1">
          <mxGeometry x="310" y="210" width="60" height="30" as="geometry" />
        </mxCell>
        <mxCell id="QZzGZG3oZ8tmxCs0Tylt-24" value="(1,N)" style="text;html=1;strokeColor=none;fillColor=none;align=center;verticalAlign=middle;whiteSpace=wrap;rounded=0;" vertex="1" parent="1">
          <mxGeometry x="510" y="210" width="60" height="30" as="geometry" />
        </mxCell>
      </root>
    </mxGraphModel>
  </diagram>
</mxfile>
